<svg xmlns="http://www.w3.org/2000/svg" width="154" height="32" viewBox="0 0 154 32"><g transform="translate(41,-7)translate(52,23)rotate(0)translate(-52,-23)" opacity="1"><path transform="translate(6,0)rotate(0)" d="M1.06 27.49L1.06 27.49L1.06 24.67L1.06 24.67Q1.06 21.95 3.19 19.99L3.19 19.99L3.19 19.99Q5.31 18.03 8.33 18.03L8.33 18.03L8.33 18.03Q11.16 18.03 13.16 19.81L13.16 19.81L13.16 19.81Q15.17 21.58 15.17 24.27L15.17 24.27L15.17 24.27Q15.17 25.27 14.92 25.92L14.92 25.92L14.92 25.92Q14.68 26.56 14.16 26.83L14.16 26.83L14.16 26.83Q13.65 27.09 13.21 27.16L13.21 27.16L13.21 27.16Q12.78 27.23 12.09 27.23L12.09 27.23L5.35 27.23L5.35 27.72L5.35 27.72Q5.35 29.15 6.41 30.03L6.41 30.03L6.41 30.03Q7.47 30.91 9.23 30.91L9.23 30.91L9.23 30.91Q10.49 30.91 11.72 30.28L11.72 30.28L11.72 30.28Q12.95 29.65 13.31 29.65L13.31 29.65L13.31 29.65Q14.01 29.65 14.48 30.30L14.48 30.30L14.48 30.30Q14.94 30.95 14.94 31.54L14.94 31.54L14.94 31.54Q14.94 32.47 13.26 33.39L13.26 33.39L13.26 33.39Q11.59 34.30 9.10 34.30L9.10 34.30L9.10 34.30Q5.54 34.30 3.30 32.42L3.30 32.42L3.30 32.42Q1.06 30.55 1.06 27.49ZM5.35 23.77L5.35 24.70L10.19 24.70L10.19 24.70Q10.72 24.70 10.94 24.52L10.94 24.52L10.94 24.52Q11.16 24.34 11.16 23.81L11.16 23.81L11.16 23.81Q11.16 22.64 10.31 21.91L10.31 21.91L10.31 21.91Q9.46 21.18 8.23 21.18L8.23 21.18L8.23 21.18Q7.07 21.18 6.21 21.90L6.21 21.90L6.21 21.90Q5.35 22.61 5.35 23.77L5.35 23.77ZM16.73 32.64L16.73 32.64L16.73 19.56L16.73 19.56Q16.73 18.96 17.32 18.59L17.32 18.59L17.32 18.59Q17.90 18.23 18.86 18.23L18.86 18.23L18.86 18.23Q19.66 18.23 20.20 18.59L20.20 18.59L20.20 18.59Q20.75 18.96 20.75 19.56L20.75 19.56L20.75 20.55L20.75 20.55Q22.18 18.03 25.13 18.03L25.13 18.03L25.13 18.03Q26.53 18.03 27.64 18.94L27.64 18.94L27.64 18.94Q28.75 19.86 29.28 21.35L29.28 21.35L29.28 21.35Q30.11 19.72 31.46 18.88L31.46 18.88L31.46 18.88Q32.80 18.03 34.30 18.03L34.30 18.03L34.30 18.03Q36.69 18.03 38.45 19.86L38.45 19.86L38.45 19.86Q40.21 21.68 40.21 24.77L40.21 24.77L40.21 32.64L40.21 32.64Q40.21 33.14 39.56 33.57L39.56 33.57L39.56 33.57Q38.91 34 38.05 34L38.05 34L38.05 34Q37.22 34 36.57 33.57L36.57 33.57L36.57 33.57Q35.92 33.14 35.92 32.64L35.92 32.64L35.92 24.77L35.92 24.77Q35.92 23.38 35.13 22.56L35.13 22.56L35.13 22.56Q34.33 21.75 33.24 21.75L33.24 21.75L33.24 21.75Q32.17 21.75 31.39 22.56L31.39 22.56L31.39 22.56Q30.61 23.38 30.61 24.74L30.61 24.74L30.61 32.67L30.61 32.67Q30.61 33.34 29.98 33.67L29.98 33.67L29.98 33.67Q29.35 34 28.45 34L28.45 34L28.45 34Q27.62 34 26.98 33.65L26.98 33.65L26.98 33.65Q26.33 33.30 26.33 32.67L26.33 32.67L26.33 24.77L26.33 24.77Q26.33 23.44 25.52 22.61L25.52 22.61L25.52 22.61Q24.70 21.78 23.61 21.78L23.61 21.78L23.61 21.78Q22.54 21.78 21.78 22.58L21.78 22.58L21.78 22.58Q21.02 23.38 21.02 24.77L21.02 24.77L21.02 32.64L21.02 32.64Q21.02 33.14 20.37 33.57L20.37 33.57L20.37 33.57Q19.72 34 18.86 34L18.86 34L18.86 34Q17.96 34 17.35 33.58L17.35 33.58L17.35 33.58Q16.73 33.17 16.73 32.64ZM41.80 27.49L41.80 27.49L41.80 24.77L41.80 24.77Q41.80 22.05 43.93 20.04L43.93 20.04L43.93 20.04Q46.05 18.03 49.01 18.03L49.01 18.03L49.01 18.03Q51.90 18.03 54.05 20.02L54.05 20.02L54.05 20.02Q56.21 22.01 56.21 24.77L56.21 24.77L56.21 27.49L56.21 27.49Q56.21 30.18 54.05 32.24L54.05 32.24L54.05 32.24Q51.90 34.30 49.01 34.30L49.01 34.30L49.01 34.30Q46.12 34.30 43.96 32.24L43.96 32.24L43.96 32.24Q41.80 30.18 41.80 27.49ZM46.08 24.77L46.08 27.49L46.08 27.49Q46.08 28.69 46.95 29.62L46.95 29.62L46.95 29.62Q47.81 30.55 49.01 30.55L49.01 30.55L49.01 30.55Q50.17 30.55 51.05 29.62L51.05 29.62L51.05 29.62Q51.93 28.69 51.93 27.49L51.93 27.49L51.93 24.77L51.93 24.77Q51.93 23.64 51.05 22.71L51.05 22.71L51.05 22.71Q50.17 21.78 49.01 21.78L49.01 21.78L49.01 21.78Q47.81 21.78 46.95 22.69L46.95 22.69L46.95 22.69Q46.08 23.61 46.08 24.77L46.08 24.77ZM57.94 32.64L57.94 32.64L57.94 19.56L57.94 19.56Q57.94 18.96 58.52 18.59L58.52 18.59L58.52 18.59Q59.10 18.23 60.03 18.23L60.03 18.23L60.03 18.23Q60.86 18.23 61.41 18.59L61.41 18.59L61.41 18.59Q61.96 18.96 61.96 19.56L61.96 19.56L61.96 20.92L61.96 20.92Q62.49 19.76 63.62 18.89L63.62 18.89L63.62 18.89Q64.74 18.03 66.04 18.03L66.04 18.03L67.07 18.03L67.07 18.03Q67.67 18.03 68.15 18.59L68.15 18.59L68.15 18.59Q68.63 19.16 68.63 19.89L68.63 19.89L68.63 19.89Q68.63 20.65 68.15 21.22L68.15 21.22L68.15 21.22Q67.67 21.78 67.07 21.78L67.07 21.78L66.04 21.78L66.04 21.78Q64.51 21.78 63.37 23.14L63.37 23.14L63.37 23.14Q62.22 24.50 62.22 26.70L62.22 26.70L62.22 32.64L62.22 32.64Q62.22 33.14 61.56 33.57L61.56 33.57L61.56 33.57Q60.89 34 60.03 34L60.03 34L60.03 34Q59.13 34 58.54 33.58L58.54 33.58L58.54 33.58Q57.94 33.17 57.94 32.64ZM69.23 12.62L69.23 12.62L69.23 12.62Q69.23 11.75 69.91 11.14L69.91 11.14L69.91 11.14Q70.59 10.53 71.58 10.53L71.58 10.53L71.58 10.53Q72.55 10.53 73.23 11.14L73.23 11.14L73.23 11.14Q73.91 11.75 73.91 12.62L73.91 12.62L73.91 12.62Q73.91 13.45 73.23 14.08L73.23 14.08L73.23 14.08Q72.55 14.71 71.58 14.71L71.58 14.71L71.58 14.71Q70.59 14.71 69.91 14.08L69.91 14.08L69.91 14.08Q69.23 13.45 69.23 12.62ZM69.46 32.64L69.46 32.64L69.46 19.56L69.46 19.56Q69.46 18.96 70.06 18.59L70.06 18.59L70.06 18.59Q70.65 18.23 71.58 18.23L71.58 18.23L71.58 18.23Q72.51 18.23 73.13 18.59L73.13 18.59L73.13 18.59Q73.74 18.96 73.74 19.56L73.74 19.56L73.74 32.64L73.74 32.64Q73.74 33.14 73.09 33.57L73.09 33.57L73.09 33.57Q72.45 34 71.58 34L71.58 34L71.58 34Q70.69 34 70.07 33.58L70.07 33.58L70.07 33.58Q69.46 33.17 69.46 32.64ZM75.47 27.49L75.47 27.49L75.47 24.77L75.47 24.77Q75.47 22.05 77.59 20.04L77.59 20.04L77.59 20.04Q79.72 18.03 82.67 18.03L82.67 18.03L82.67 18.03Q85.56 18.03 87.72 20.02L87.72 20.02L87.72 20.02Q89.88 22.01 89.88 24.77L89.88 24.77L89.88 27.49L89.88 27.49Q89.88 30.18 87.72 32.24L87.72 32.24L87.72 32.24Q85.56 34.30 82.67 34.30L82.67 34.30L82.67 34.30Q79.79 34.30 77.63 32.24L77.63 32.24L77.63 32.24Q75.47 30.18 75.47 27.49ZM79.75 24.77L79.75 27.49L79.75 27.49Q79.75 28.69 80.62 29.62L80.62 29.62L80.62 29.62Q81.48 30.55 82.67 30.55L82.67 30.55L82.67 30.55Q83.84 30.55 84.72 29.62L84.72 29.62L84.72 29.62Q85.60 28.69 85.60 27.49L85.60 27.49L85.60 24.77L85.60 24.77Q85.60 23.64 84.72 22.71L84.72 22.71L84.72 22.71Q83.84 21.78 82.67 21.78L82.67 21.78L82.67 21.78Q81.48 21.78 80.62 22.69L80.62 22.69L80.62 22.69Q79.75 23.61 79.75 24.77L79.75 24.77Z" fill="#3B3B3B"/></g><g transform="translate(15,-7)translate(19.5,22.5)rotate(0)translate(-19.5,-22.5)" opacity="1"><path transform="translate(6,0)rotate(0)" d="M1.66 32.64L1.66 32.64L1.66 19.56L1.66 19.56Q1.66 18.96 2.24 18.59L2.24 18.59L2.24 18.59Q2.82 18.23 3.79 18.23L3.79 18.23L3.79 18.23Q4.58 18.23 5.13 18.59L5.13 18.59L5.13 18.59Q5.68 18.96 5.68 19.56L5.68 19.56L5.68 20.55L5.68 20.55Q7.11 18.03 10.06 18.03L10.06 18.03L10.06 18.03Q11.45 18.03 12.57 18.94L12.57 18.94L12.57 18.94Q13.68 19.86 14.21 21.35L14.21 21.35L14.21 21.35Q15.04 19.72 16.39 18.88L16.39 18.88L16.39 18.88Q17.73 18.03 19.22 18.03L19.22 18.03L19.22 18.03Q21.61 18.03 23.37 19.86L23.37 19.86L23.37 19.86Q25.13 21.68 25.13 24.77L25.13 24.77L25.13 32.64L25.13 32.64Q25.13 33.14 24.49 33.57L24.49 33.57L24.49 33.57Q23.84 34 22.98 34L22.98 34L22.98 34Q22.15 34 21.50 33.57L21.50 33.57L21.50 33.57Q20.85 33.14 20.85 32.64L20.85 32.64L20.85 24.77L20.85 24.77Q20.85 23.38 20.05 22.56L20.05 22.56L20.05 22.56Q19.26 21.75 18.16 21.75L18.16 21.75L18.16 21.75Q17.10 21.75 16.32 22.56L16.32 22.56L16.32 22.56Q15.54 23.38 15.54 24.74L15.54 24.74L15.54 32.67L15.54 32.67Q15.54 33.34 14.91 33.67L14.91 33.67L14.91 33.67Q14.28 34 13.38 34L13.38 34L13.38 34Q12.55 34 11.90 33.65L11.90 33.65L11.90 33.65Q11.26 33.30 11.26 32.67L11.26 32.67L11.26 24.77L11.26 24.77Q11.26 23.44 10.44 22.61L10.44 22.61L10.44 22.61Q9.63 21.78 8.53 21.78L8.53 21.78L8.53 21.78Q7.47 21.78 6.71 22.58L6.71 22.58L6.71 22.58Q5.94 23.38 5.94 24.77L5.94 24.77L5.94 32.64L5.94 32.64Q5.94 33.14 5.30 33.57L5.30 33.57L5.30 33.57Q4.65 34 3.79 34L3.79 34L3.79 34Q2.89 34 2.27 33.58L2.27 33.58L2.27 33.58Q1.66 33.17 1.66 32.64Z" fill="#1D951B"/></g></svg>