<svg xmlns="http://www.w3.org/2000/svg" width="52" height="52" viewBox="0 0 52 52"><g transform="translate(25,87)translate(1,2)rotate(0)translate(-1,-2)" opacity="1"><path transform="translate(0.7464489677434404,0)rotate(0)" d="" fill="#000000"/></g><g transform="translate(0,0) scale(1,1) rotate(0 25.5 26)" opacity="1"><linearGradient class="linearGradient" x1="0%" y1="0%" x2="0%" y2="100%" gradientTransform="translate(0.5,0.5) rotate(0) translate(-0.5,-0.5)">
		<stop id="stop1" offset="0%" class="linearGradientColor1" stop-color="#05a"/>
		<stop id="stop2" offset="100%" class="linearGradientColor2" stop-color="#0a5"/>
	</linearGradient><radialGradient class="radialGradient" cx="50%" cy="50%" r="50%" fx="50%" fy="50%">
		<stop offset="0%" class="radialGradientColor1" stop-color="#05a"/>
		<stop offset="100%" class="radialGradientColor2" stop-color="#0a5"/>
	</radialGradient><clipPath id="clip1" class="clipPath">
		<ellipse fill="none" class="element" stroke="#dddddd" stroke-width="1" stroke-miterlimit="10" cx="25" cy="26" rx="25" ry="26"/>
	</clipPath><ellipse class="fill-color element" fill="#FFFFFF" opacity="1" cx="25" cy="26" rx="24" ry="25" clip-path="url(#clip1)"/><ellipse class="stroke-color element" fill="none" stroke="#dddddd" stroke-width="0" stroke-miterlimit="10" cx="25" cy="26" rx="25" ry="26" clip-path="url(#clip1)"/></g><g transform="translate(6,5)translate(20,20.5)rotate(0)translate(-20,-20.5) scale(0.43593936705828856,0.43593936705828856)" opacity="1"><defs class="defs"/><path transform="translate(-2.1174804996184133,-2.16)" d="M92.252,57.532c-5.124,-0.968 -10.132,-1.584 -15.012,-1.937c1.568,-15.572 0.611,-32.244 -7.992,-41.684c-7.2,-7.911 -12.928,-11.751 -17.504,-11.751c-2.044,0 -3.556,0.78 -4.668,1.796c-0.224,-0.032 -0.452,-0.044 -0.684,0.004c-0.328,0.068 -3.3,0.756 -7.364,4.076c-1.748,1.428 -2.752,3.336 -2.9,5.516c-0.376,5.56 4.78,11.264 5.368,11.896c0.388,0.416 0.92,0.632 1.464,0.632c0.256,0 0.516,-0.048 0.76,-0.148c0.768,-0.316 1.264,-1.08 1.24,-1.916c-0.072,-2.34 0.256,-4.992 0.708,-6.02c0.084,0.048 0.172,0.052 0.256,0.084c1.62,1.66 4.072,2.576 7.256,2.576c0.164,0 0.328,0 0.484,-0.004l4.313,30.212c0.131,0.907 0.859,1.6 1.764,1.704l7.472,0.8l-0.084,1.86c-36.845,0.04 -63.665,14.676 -63.985,14.856c-0.964,0.536 -1.312,1.752 -0.772,2.721c0.364,0.655 1.048,1.031 1.748,1.031c0.332,0 0.664,-0.084 0.972,-0.252c0.316,-0.172 26.232,-14.252 61.86,-14.336l-1.392,32.504c-0.049,1 0.655,1.876 1.64,2.057c0.116,0.023 0.243,0.031 0.36,0.031c0.848,0 1.623,-0.544 1.899,-1.38c0.392,-1.185 5.132,-15.896 7.312,-32.836c4.789,0.34 9.688,0.896 14.729,1.844c1.092,0.208 2.132,-0.508 2.336,-1.588c0.212,-1.1 -0.5,-2.136 -1.584,-2.348zM55.376,12.664c-0.372,0.376 -0.884,0.588 -1.416,0.588c-0.524,0 -1.044,-0.212 -1.416,-0.588c-0.372,-0.368 -0.584,-0.884 -0.584,-1.408c0,-0.524 0.22,-1.04 0.584,-1.416c0.752,-0.748 2.084,-0.748 2.828,0c0.372,0.376 0.584,0.892 0.584,1.416c0.004,0.528 -0.208,1.04 -0.58,1.408zM68.372,44.876c-0.14,0.024 -0.276,0.04 -0.412,0.04c-0.928,0 -1.76,-0.648 -1.956,-1.592l-3.332,-16c-0.229,-1.084 0.473,-2.14 1.557,-2.368c1.08,-0.228 2.14,0.472 2.359,1.548l3.336,16c0.217,1.084 -0.472,2.148 -1.552,2.372z" fill="#000000" class="fill c1"/></g></svg>